<svg xmlns="http://www.w3.org/2000/svg" viewBox="0 0 128 128" role="img" aria-labelledby="title desc">
  <title id="title">LittleDuck 鸭子品牌 Logo</title>
  <desc id="desc">绿色圆形内的白色小鸭正脸，包含顶部羽冠、两只黑色眼睛和居中橙色鸭嘴</desc>
  <defs>
    <filter id="shadow" x="-20%" y="-20%" width="140%" height="140%">
      <feDropShadow dx="0" dy="1.5" stdDeviation="1.5" flood-color="#157758" flood-opacity="0.18"/>
    </filter>
  </defs>
  <circle cx="64" cy="64" r="60" fill="#31B58B" stroke="#24966F" stroke-width="2"/>
  <g filter="url(#shadow)">
    <ellipse cx="64" cy="69" rx="39" ry="43" fill="#FFFFFF"/>
    <path fill="#FFFFFF" d="M54 31c-2-10 3-17 13-20-1 7 1 11 6 14 4-6 9-8 16-6-6 4-8 9-8 15Z"/>
    <ellipse cx="48" cy="60" rx="6.4" ry="8.2" fill="#23262B"/>
    <ellipse cx="80" cy="60" rx="6.4" ry="8.2" fill="#23262B"/>
    <ellipse cx="50" cy="57" rx="2" ry="2.8" fill="#FFFFFF"/>
    <ellipse cx="82" cy="57" rx="2" ry="2.8" fill="#FFFFFF"/>
    <path fill="#FFAA2F" d="M37 79c7-8 16-11 27-11s20 3 27 11c-5 6-13 7-18 12-5 5-13 5-18 0-5-5-13-6-18-12Z"/>
    <path fill="none" stroke="#E98919" stroke-linecap="round" stroke-width="1.8" d="M43 80c12 3 30 3 42 0"/>
    <ellipse cx="58" cy="76" rx="1.6" ry="1.2" fill="#B96712"/>
    <ellipse cx="70" cy="76" rx="1.6" ry="1.2" fill="#B96712"/>
  </g>
</svg>

